<svg xmlns="http://www.w3.org/2000/svg" xmlns:xlink="http://www.w3.org/1999/xlink" width="375" zoomAndPan="magnify" viewBox="0 0 281.25 266.250005" height="355" preserveAspectRatio="xMidYMid meet" version="1.0"><defs><g><g id="id1"/></g></defs><path fill="rgb(76.469421%, 7.449341%, 28.239441%)" d="M 227.398438 88.644531 C 226.066406 77.402344 221.253906 67.898438 213.472656 61.160156 C 206.28125 54.941406 197.5625 51.785156 189.082031 49.238281 C 189.175781 51.398438 189.109375 53.542969 188.808594 55.667969 C 195.878906 57.847656 203.488281 60.734375 209.398438 65.84375 C 215.941406 71.507812 220 79.59375 221.140625 89.234375 C 222.203125 98.195312 220.617188 107.617188 216.671875 115.773438 L 213.6875 122.316406 C 205.011719 142.089844 188.882812 178.875 127.5 178.875 L 127.347656 178.875 C 104.726562 178.847656 85.042969 165.945312 74.164062 153.875 C 67.890625 146.914062 63.667969 139.613281 61.609375 132.183594 C 61.191406 130.683594 60.851562 129.113281 60.59375 127.511719 C 57.542969 108.558594 67.457031 89.703125 77.871094 72.007812 C 86.355469 57.597656 95.902344 43.210938 110.9375 39.34375 C 112.414062 38.964844 113.988281 38.683594 115.617188 38.507812 C 125.738281 37.425781 136.785156 40.609375 145.671875 43.171875 L 151.132812 44.753906 C 151.125 44.671875 151.105469 44.585938 151.097656 44.511719 C 150.875 42.667969 150.792969 40.496094 150.804688 38.171875 L 147.277344 37.15625 C 136.128906 33.941406 122.230469 29.929688 109.222656 33.273438 C 91.910156 37.726562 81.546875 53.242188 72.414062 68.75 C 61.429688 87.390625 50.988281 107.355469 54.363281 128.351562 C 54.660156 130.152344 55.050781 131.960938 55.535156 133.714844 C 57.859375 142.105469 62.558594 150.28125 69.519531 158 C 84.816406 174.976562 106.492188 185.121094 127.496094 185.140625 L 127.71875 185.140625 C 132.992188 185.140625 138.144531 184.875 143.03125 184.355469 C 195.898438 178.691406 211.238281 143.71875 219.558594 124.742188 L 222.363281 118.601562 C 226.8125 109.398438 228.601562 98.761719 227.398438 88.644531 " fill-opacity="1" fill-rule="nonzero"/><path fill="rgb(52.159119%, 39.219666%, 34.509277%)" d="M 155.945312 45.179688 C 156.964844 51.527344 159.945312 60.410156 168.34375 66.6875 C 168.921875 67.121094 170.5625 68.347656 172.773438 68.347656 C 172.980469 68.347656 173.195312 68.335938 173.414062 68.3125 C 175.753906 68.042969 177.28125 66.515625 178.234375 65.386719 C 184.984375 57.363281 186.378906 46.363281 181.871094 36.679688 C 177.617188 27.523438 169.132812 20.65625 162.214844 15.699219 L 158.171875 12.800781 L 157.425781 17.617188 C 157.148438 19.429688 154.746094 35.523438 155.714844 43.542969 C 155.777344 44.078125 155.859375 44.617188 155.945312 45.179688 " fill-opacity="1" fill-rule="nonzero"/><path fill="rgb(66.668701%, 65.879822%, 15.289307%)" d="M 195.398438 106.285156 C 193.058594 95.140625 181.4375 88.667969 171.632812 87.371094 C 162.128906 86.109375 153.011719 88.46875 144.152344 90.765625 L 142.960938 91.078125 C 134.007812 93.382812 125.273438 95.292969 116.785156 93.332031 C 114.496094 92.808594 112.160156 91.964844 109.800781 91.113281 C 107.277344 90.203125 104.664062 89.257812 101.902344 88.636719 C 94.84375 87.058594 88.429688 88.484375 84.761719 92.453125 C 80.875 96.632812 80.175781 103.449219 82.976562 109.808594 C 85.289062 115.0625 89.371094 119.199219 92.976562 122.847656 C 106.246094 136.3125 120.742188 149.628906 139.125 151.5625 C 141 151.761719 142.898438 151.863281 144.777344 151.863281 C 160.410156 151.863281 175.851562 145.097656 186.089844 133.761719 C 193.867188 125.152344 197.257812 115.136719 195.398438 106.285156 M 139.765625 145.507812 C 123.378906 143.777344 109.808594 131.253906 97.3125 118.570312 C 94.082031 115.292969 90.421875 111.585938 88.550781 107.355469 C 87.105469 104.074219 86.703125 99.3125 89.226562 96.589844 C 90.71875 94.976562 93.246094 94.089844 96.355469 94.089844 C 97.6875 94.089844 99.105469 94.257812 100.570312 94.585938 C 102.933594 95.117188 105.355469 95.988281 107.933594 96.921875 C 110.332031 97.777344 112.808594 98.675781 115.410156 99.269531 C 125.234375 101.542969 135.160156 99.382812 144.488281 96.972656 L 145.6875 96.667969 C 153.941406 94.523438 162.46875 92.304688 170.835938 93.414062 C 178.824219 94.46875 187.777344 99.664062 189.433594 107.535156 C 190.882812 114.460938 188.019531 122.527344 181.570312 129.675781 C 173.5 138.613281 158.265625 147.457031 139.765625 145.507812 " fill-opacity="1" fill-rule="nonzero"/><g fill="rgb(76.469421%, 7.449341%, 28.239441%)" fill-opacity="1"><g transform="translate(20.426319, 250.585992)"><g><path d="M 3.84375 0 L 3.84375 -39.5 L 12.421875 -39.5 L 25 -14.453125 L 37.421875 -39.5 L 46 -39.5 L 46 0 L 38.765625 0 L 38.765625 -27.265625 L 27.765625 -5.640625 L 22.0625 -5.640625 L 11.0625 -27.265625 L 11.0625 0 Z M 3.84375 0 "/></g></g></g><g fill="rgb(76.469421%, 7.449341%, 28.239441%)" fill-opacity="1"><g transform="translate(70.251012, 250.585992)"><g><path d="M 7.171875 12.421875 L 13.65625 -1.859375 L 11.96875 -1.859375 L 1.078125 -28 L 8.921875 -28 L 16.765625 -8.296875 L 24.953125 -28 L 32.625 -28 L 14.84375 12.421875 Z M 7.171875 12.421875 "/></g></g></g><g fill="rgb(66.668701%, 65.879822%, 15.289307%)" fill-opacity="1"><g transform="translate(103.932631, 250.585992)"><g><path d="M 3.84375 0 L 3.84375 -39.5 L 18.453125 -39.5 C 21.617188 -39.5 24.234375 -38.972656 26.296875 -37.921875 C 28.367188 -36.867188 29.910156 -35.421875 30.921875 -33.578125 C 31.941406 -31.734375 32.453125 -29.664062 32.453125 -27.375 C 32.453125 -25.1875 31.960938 -23.179688 30.984375 -21.359375 C 30.003906 -19.535156 28.476562 -18.066406 26.40625 -16.953125 C 24.34375 -15.847656 21.691406 -15.296875 18.453125 -15.296875 L 11.0625 -15.296875 L 11.0625 0 Z M 11.0625 -21.15625 L 18 -21.15625 C 20.519531 -21.15625 22.332031 -21.710938 23.4375 -22.828125 C 24.550781 -23.941406 25.109375 -25.457031 25.109375 -27.375 C 25.109375 -29.332031 24.550781 -30.863281 23.4375 -31.96875 C 22.332031 -33.082031 20.519531 -33.640625 18 -33.640625 L 11.0625 -33.640625 Z M 11.0625 -21.15625 "/></g></g></g><g fill="rgb(66.668701%, 65.879822%, 15.289307%)" fill-opacity="1"><g transform="translate(138.18358, 250.585992)"><g><path d="M 3.671875 0 L 3.671875 -28 L 10.109375 -28 L 10.78125 -22.75 C 11.789062 -24.550781 13.171875 -25.988281 14.921875 -27.0625 C 16.671875 -28.132812 18.734375 -28.671875 21.109375 -28.671875 L 21.109375 -21.046875 L 19.078125 -21.046875 C 17.492188 -21.046875 16.082031 -20.800781 14.84375 -20.3125 C 13.601562 -19.820312 12.632812 -18.972656 11.9375 -17.765625 C 11.238281 -16.566406 10.890625 -14.894531 10.890625 -12.75 L 10.890625 0 Z M 3.671875 0 "/></g></g></g><g fill="rgb(66.668701%, 65.879822%, 15.289307%)" fill-opacity="1"><g transform="translate(160.528522, 250.585992)"><g><path d="M 17.09375 0.671875 C 14.382812 0.671875 11.945312 0.0507812 9.78125 -1.1875 C 7.625 -2.425781 5.914062 -4.144531 4.65625 -6.34375 C 3.394531 -8.550781 2.765625 -11.101562 2.765625 -14 C 2.765625 -16.894531 3.40625 -19.441406 4.6875 -21.640625 C 5.96875 -23.847656 7.6875 -25.570312 9.84375 -26.8125 C 12.007812 -28.050781 14.445312 -28.671875 17.15625 -28.671875 C 19.820312 -28.671875 22.238281 -28.050781 24.40625 -26.8125 C 26.570312 -25.570312 28.285156 -23.847656 29.546875 -21.640625 C 30.804688 -19.441406 31.4375 -16.894531 31.4375 -14 C 31.4375 -11.101562 30.804688 -8.550781 29.546875 -6.34375 C 28.285156 -4.144531 26.5625 -2.425781 24.375 -1.1875 C 22.195312 0.0507812 19.769531 0.671875 17.09375 0.671875 Z M 17.09375 -5.59375 C 18.976562 -5.59375 20.613281 -6.296875 22 -7.703125 C 23.394531 -9.109375 24.09375 -11.207031 24.09375 -14 C 24.09375 -16.78125 23.394531 -18.875 22 -20.28125 C 20.613281 -21.695312 19 -22.40625 17.15625 -22.40625 C 15.238281 -22.40625 13.59375 -21.695312 12.21875 -20.28125 C 10.84375 -18.875 10.15625 -16.78125 10.15625 -14 C 10.15625 -11.207031 10.84375 -9.109375 12.21875 -7.703125 C 13.59375 -6.296875 15.21875 -5.59375 17.09375 -5.59375 Z M 17.09375 -5.59375 "/></g></g></g><g fill="rgb(66.668701%, 65.879822%, 15.289307%)" fill-opacity="1"><g transform="translate(194.723058, 250.585992)"><g><path d="M 1.015625 0 L 11.171875 -14 L 1.015625 -28 L 8.75 -28 L 15.859375 -18.0625 L 22.90625 -28 L 30.703125 -28 L 20.484375 -14 L 30.703125 0 L 22.90625 0 L 15.859375 -9.9375 L 8.75 0 Z M 1.015625 0 "/></g></g></g><g fill="rgb(66.668701%, 65.879822%, 15.289307%)" fill-opacity="1"><g transform="translate(226.378387, 250.585992)"><g><path d="M 7.171875 12.421875 L 13.65625 -1.859375 L 11.96875 -1.859375 L 1.078125 -28 L 8.921875 -28 L 16.765625 -8.296875 L 24.953125 -28 L 32.625 -28 L 14.84375 12.421875 Z M 7.171875 12.421875 "/></g></g></g></svg>